<?xml version="1.0" standalone="no"?>
<!DOCTYPE svg PUBLIC "-//W3C//DTD SVG 20010904//EN"
 "http://www.w3.org/TR/2001/REC-SVG-20010904/DTD/svg10.dtd">
<svg version="1.0" xmlns="http://www.w3.org/2000/svg"
 width="700.000000pt" height="700.000000pt" viewBox="0 0 700.000000 700.000000"
 preserveAspectRatio="xMidYMid meet">
<metadata>
Created by potrace 1.11, written by Peter Selinger 2001-2013
</metadata>
<g transform="translate(0.000000,700.000000) scale(0.100000,-0.100000)"
fill="#000000" stroke="none">
<path d="M2778 6900 c-85 -32 -140 -89 -168 -175 -10 -31 -13 -208 -13 -841
l0 -802 -307 0 c-244 0 -316 -3 -357 -15 -117 -35 -205 -123 -240 -241 -14
-45 -16 -276 -16 -2071 0 -1111 3 -2038 7 -2060 10 -58 48 -137 90 -182 19
-22 66 -55 103 -74 l67 -34 1541 -2 c1519 -3 1541 -3 1595 17 107 39 180 111
220 217 l22 58 1 2010 c0 1106 -3 2037 -7 2070 -15 128 -115 253 -230 286 -64
19 -98 21 -387 21 l-296 1 0 801 c0 833 0 839 -41 906 -25 40 -122 124 -122
104 0 -3 -7 0 -17 7 -13 12 -137 14 -708 15 -628 1 -696 0 -737 -16z m1414
-134 c26 -12 43 -31 57 -59 18 -41 19 -69 18 -833 l0 -792 -766 2 -766 1 -3
770 c-2 424 0 789 3 812 9 65 61 110 136 115 24 2 323 3 664 2 570 -1 623 -2
657 -18z"/>
<path d="M2370 291 c0 -25 27 -87 53 -123 66 -89 209 -109 309 -43 42 28 83
93 93 148 l7 37 -231 0 c-219 0 -231 -1 -231 -19z"/>
<path d="M4170 290 c0 -62 61 -149 127 -181 139 -67 300 13 328 164 l7 37
-231 0 c-226 0 -231 0 -231 -20z"/>
</g>
</svg>
